<svg xmlns="http://www.w3.org/2000/svg" width="1440" height="720" viewBox="0 0 1440 720">
  <defs>
    <linearGradient id="bg" x1="0" y1="0" x2="1" y2="1"><stop stop-color="#8cc9ed"/><stop offset=".45" stop-color="#347ee4"/><stop offset="1" stop-color="#071d77"/></linearGradient>
    <radialGradient id="orb"><stop stop-color="#d8fff4" stop-opacity=".92"/><stop offset="1" stop-color="#7ad6ff" stop-opacity="0"/></radialGradient>
    <linearGradient id="glass" x1="0" y1="0" x2="1" y2="1"><stop stop-color="#fff" stop-opacity=".34"/><stop offset=".46" stop-color="#d7f5ff" stop-opacity=".17"/><stop offset="1" stop-color="#63b9ff" stop-opacity=".25"/></linearGradient>
    <linearGradient id="rim"><stop stop-color="#fff" stop-opacity=".92"/><stop offset=".5" stop-color="#66e8ff" stop-opacity=".72"/><stop offset="1" stop-color="#a48dff" stop-opacity=".6"/></linearGradient>
    <filter id="shadow" x="-20%" y="-30%" width="140%" height="170%"><feGaussianBlur in="SourceAlpha" stdDeviation="15"/><feOffset dy="16"/><feColorMatrix values="0 0 0 0 0.02 0 0 0 0 0.12 0 0 0 0 0.45 0 0 0 .35 0"/><feBlend in="SourceGraphic"/></filter>
    <filter id="blur"><feGaussianBlur stdDeviation="42"/></filter>
  </defs>
  <rect width="1440" height="720" fill="url(#bg)"/>
  <ellipse cx="275" cy="500" rx="420" ry="280" fill="url(#orb)" filter="url(#blur)"/>
  <path d="M0 600 C350 430 510 735 840 530 C1050 400 1210 500 1440 310 V720 H0Z" fill="#173ba4" opacity=".74"/>
  <path d="M0 620 C340 450 530 705 845 545 C1090 420 1240 505 1440 335" fill="none" stroke="#bffbff" stroke-opacity=".48" stroke-width="3"/>
  <rect x="176" y="92" width="1088" height="316" rx="42" fill="#061d62" opacity=".25" filter="url(#shadow)"/>
  <rect x="176" y="72" width="1088" height="316" rx="42" fill="url(#glass)" stroke="url(#rim)" stroke-width="2.5"/>
  <path d="M212 76 H1192 Q1256 76 1260 136" fill="none" stroke="#fff" stroke-opacity=".78" stroke-width="4" stroke-linecap="round"/>
  <text x="210" y="120" fill="white" font-family="-apple-system,BlinkMacSystemFont,sans-serif" font-size="23" font-weight="650">Clipio</text>
  <rect x="325" y="91" width="755" height="48" rx="17" fill="#e6f7ff" opacity=".18" stroke="#fff" stroke-opacity=".3"/>
  <circle cx="354" cy="115" r="8" fill="none" stroke="white" stroke-opacity=".75" stroke-width="2"/><path d="M360 121l7 7" stroke="white" stroke-opacity=".75" stroke-width="2"/>
  <text x="378" y="122" fill="white" fill-opacity=".75" font-family="-apple-system,sans-serif" font-size="18">Type to search…</text>
  <text x="1125" y="122" fill="white" font-family="sans-serif" font-size="26">⚙</text><text x="1180" y="122" fill="white" font-family="sans-serif" font-size="27">◯</text>
  <g font-family="-apple-system,sans-serif">
    <g transform="translate(210 163)"><rect width="154" height="185" rx="23" fill="#eaf8ff" fill-opacity=".22" stroke="#fff" stroke-opacity=".48"/><circle cx="20" cy="21" r="13" fill="#3058b8"/><text x="16" y="26" fill="white" font-size="14">1</text><text x="15" y="57" fill="white" font-size="14" font-weight="600">Design notes</text><text x="15" y="82" fill="white" fill-opacity=".8" font-size="12">Make the shelf feel</text><text x="15" y="101" fill="white" fill-opacity=".8" font-size="12">lighter, clearer, and</text><text x="15" y="120" fill="white" fill-opacity=".8" font-size="12">more alive.</text><line x1="13" y1="145" x2="141" y2="145" stroke="white" stroke-opacity=".25"/><text x="15" y="169" fill="white" fill-opacity=".82" font-size="12">◉  1m ago</text></g>
    <g transform="translate(378 163)"><rect width="154" height="185" rx="23" fill="#eaf8ff" fill-opacity=".19" stroke="#fff" stroke-opacity=".46"/><rect x="8" y="8" width="138" height="127" rx="17" fill="#284781"/><circle cx="105" cy="44" r="25" fill="#f6c9a8"/><path d="M8 125L55 69l31 31 25-22 35 47" fill="#152d68"/><circle cx="20" cy="21" r="13" fill="#3058b8"/><text x="16" y="26" fill="white" font-size="14">2</text><text x="15" y="169" fill="white" fill-opacity=".82" font-size="12">◉  8m ago</text></g>
    <g transform="translate(546 163)"><rect width="154" height="185" rx="23" fill="#eaf8ff" fill-opacity=".19" stroke="#fff" stroke-opacity=".46"/><rect x="8" y="8" width="138" height="127" rx="17" fill="url(#bg)"/><text x="20" y="62" fill="white" font-size="17" font-weight="600">Clipio</text><text x="20" y="86" fill="white" fill-opacity=".8" font-size="12">Liquid Glass</text><circle cx="20" cy="21" r="13" fill="#3058b8"/><text x="16" y="26" fill="white" font-size="14">3</text><text x="15" y="169" fill="white" fill-opacity=".82" font-size="12">◉  24m ago</text></g>
    <g transform="translate(714 163)"><rect width="154" height="185" rx="23" fill="#eaf8ff" fill-opacity=".19" stroke="#fff" stroke-opacity=".46"/><rect x="8" y="8" width="138" height="127" rx="17" fill="#72e0d1"/><text x="25" y="79" fill="#073f57" font-size="19" font-weight="700">#72E0D1</text><circle cx="20" cy="21" r="13" fill="#3058b8"/><text x="16" y="26" fill="white" font-size="14">4</text><text x="15" y="169" fill="white" fill-opacity=".82" font-size="12">◉  1h ago</text></g>
    <g transform="translate(882 163)"><rect width="154" height="185" rx="23" fill="#eaf8ff" fill-opacity=".19" stroke="#fff" stroke-opacity=".46"/><text x="15" y="53" fill="white" font-size="13" font-weight="600">apple.com/design</text><text x="15" y="77" fill="white" fill-opacity=".75" font-size="12">A new material for</text><text x="15" y="96" fill="white" fill-opacity=".75" font-size="12">delightful interfaces.</text><circle cx="20" cy="21" r="13" fill="#3058b8"/><text x="16" y="26" fill="white" font-size="14">5</text><line x1="13" y1="145" x2="141" y2="145" stroke="white" stroke-opacity=".25"/><text x="15" y="169" fill="white" fill-opacity=".82" font-size="12">◉  2h ago</text></g>
    <g transform="translate(1050 163)"><rect width="154" height="185" rx="23" fill="#eaf8ff" fill-opacity=".19" stroke="#fff" stroke-opacity=".46"/><text x="15" y="54" fill="white" font-size="13" font-weight="600">Quick thought</text><text x="15" y="79" fill="white" fill-opacity=".75" font-size="12">Calm outside, vivid</text><text x="15" y="98" fill="white" fill-opacity=".75" font-size="12">at the edges.</text><circle cx="20" cy="21" r="13" fill="#3058b8"/><text x="16" y="26" fill="white" font-size="14">6</text><line x1="13" y1="145" x2="141" y2="145" stroke="white" stroke-opacity=".25"/><text x="15" y="169" fill="white" fill-opacity=".82" font-size="12">◉  3h ago</text></g>
  </g>
  <text x="720" y="485" text-anchor="middle" fill="white" font-family="-apple-system,sans-serif" font-size="20" font-weight="650">PRISM SHELF</text>
  <text x="720" y="516" text-anchor="middle" fill="white" fill-opacity=".72" font-family="-apple-system,sans-serif" font-size="15">One luminous frame · readable frosted cards · balanced depth</text>
</svg>
