<svg xmlns="http://www.w3.org/2000/svg" width="720" height="360" viewBox="0 0 1440 720">
  <defs>
    <linearGradient id="bg" x1="0" y1="0" x2="1" y2="1"><stop stop-color="#baebfb"/><stop offset=".45" stop-color="#608fe6"/><stop offset="1" stop-color="#29266f"/></linearGradient>
    <linearGradient id="tray"><stop stop-color="#fff" stop-opacity=".16"/><stop offset="1" stop-color="#8ae9ff" stop-opacity=".09"/></linearGradient>
    <linearGradient id="tile"><stop stop-color="#fff" stop-opacity=".36"/><stop offset=".55" stop-color="#dcf9ff" stop-opacity=".2"/><stop offset="1" stop-color="#72b5ff" stop-opacity=".27"/></linearGradient>
    <filter id="shadow" x="-30%" y="-30%" width="160%" height="180%"><feDropShadow dx="0" dy="17" stdDeviation="13" flood-color="#09205f" flood-opacity=".34"/></filter>
  </defs>
  <rect width="1440" height="720" fill="url(#bg)"/><circle cx="250" cy="510" r="290" fill="#a8fff1" opacity=".24"/><circle cx="1190" cy="590" r="350" fill="#324ed0" opacity=".4"/>
  <path d="M0 610 Q330 410 650 590 T1440 430 V720 H0Z" fill="#1b277d" opacity=".53"/>
  <rect x="170" y="68" width="1100" height="330" rx="38" fill="url(#tray)" stroke="#fff" stroke-opacity=".24"/>
  <text x="205" y="116" fill="white" font-family="-apple-system,sans-serif" font-size="23" font-weight="650">Clipio</text>
  <rect x="325" y="86" width="755" height="48" rx="24" fill="#fff" fill-opacity=".14" stroke="#fff" stroke-opacity=".28"/><circle cx="354" cy="110" r="8" fill="none" stroke="white" stroke-opacity=".7" stroke-width="2"/><path d="M360 116l7 7" stroke="white" stroke-opacity=".7" stroke-width="2"/><text x="378" y="117" fill="white" fill-opacity=".74" font-family="-apple-system,sans-serif" font-size="18">Type to search…</text><text x="1125" y="118" fill="white" font-family="sans-serif" font-size="26">⚙</text><text x="1180" y="118" fill="white" font-family="sans-serif" font-size="27">◯</text>
  <g font-family="-apple-system,sans-serif" filter="url(#shadow)">
    <g transform="translate(204 157)"><rect width="156" height="196" rx="25" fill="url(#tile)" stroke="#d9fbff" stroke-opacity=".75" stroke-width="1.6"/><circle cx="21" cy="22" r="13" fill="#3a59bd"/><text x="17" y="27" fill="white" font-size="14">1</text><text x="16" y="61" fill="white" font-size="14" font-weight="650">Ideas for launch</text><text x="16" y="87" fill="white" fill-opacity=".8" font-size="12">Simple, quick and</text><text x="16" y="106" fill="white" fill-opacity=".8" font-size="12">easy to recognize.</text><text x="16" y="174" fill="white" fill-opacity=".82" font-size="12">◉  1m ago</text></g>
    <g transform="translate(374 157)"><rect width="156" height="196" rx="25" fill="url(#tile)" stroke="#d9fbff" stroke-opacity=".75" stroke-width="1.6"/><rect x="9" y="9" width="138" height="136" rx="18" fill="#304b86"/><path d="M9 145L55 78l34 36 26-28 32 59" fill="#10285f"/><circle cx="112" cy="46" r="24" fill="#ffc9ae"/><circle cx="21" cy="22" r="13" fill="#3a59bd"/><text x="17" y="27" fill="white" font-size="14">2</text><text x="16" y="174" fill="white" fill-opacity=".82" font-size="12">◉  8m ago</text></g>
    <g transform="translate(544 157)"><rect width="156" height="196" rx="25" fill="url(#tile)" stroke="#d9fbff" stroke-opacity=".75" stroke-width="1.6"/><rect x="9" y="9" width="138" height="136" rx="18" fill="#2879c9"/><text x="22" y="70" fill="white" font-size="19" font-weight="650">Clipio</text><text x="22" y="96" fill="white" fill-opacity=".75" font-size="12">Keep what matters</text><circle cx="21" cy="22" r="13" fill="#3a59bd"/><text x="17" y="27" fill="white" font-size="14">3</text><text x="16" y="174" fill="white" fill-opacity=".82" font-size="12">◉  24m ago</text></g>
    <g transform="translate(714 157)"><rect width="156" height="196" rx="25" fill="url(#tile)" stroke="#d9fbff" stroke-opacity=".75" stroke-width="1.6"/><rect x="9" y="9" width="138" height="136" rx="18" fill="#6fe2c9"/><text x="26" y="81" fill="#06475f" font-size="19" font-weight="700">#6FE2C9</text><circle cx="21" cy="22" r="13" fill="#3a59bd"/><text x="17" y="27" fill="white" font-size="14">4</text><text x="16" y="174" fill="white" fill-opacity=".82" font-size="12">◉  1h ago</text></g>
    <g transform="translate(884 157)"><rect width="156" height="196" rx="25" fill="url(#tile)" stroke="#d9fbff" stroke-opacity=".75" stroke-width="1.6"/><circle cx="21" cy="22" r="13" fill="#3a59bd"/><text x="17" y="27" fill="white" font-size="14">5</text><text x="16" y="63" fill="white" font-size="13" font-weight="650">apple.com/design</text><text x="16" y="89" fill="white" fill-opacity=".76" font-size="12">Clear materials and</text><text x="16" y="108" fill="white" fill-opacity=".76" font-size="12">delightful motion.</text><text x="16" y="174" fill="white" fill-opacity=".82" font-size="12">◉  2h ago</text></g>
    <g transform="translate(1054 157)"><rect width="156" height="196" rx="25" fill="url(#tile)" stroke="#d9fbff" stroke-opacity=".75" stroke-width="1.6"/><circle cx="21" cy="22" r="13" fill="#3a59bd"/><text x="17" y="27" fill="white" font-size="14">6</text><text x="16" y="63" fill="white" font-size="13" font-weight="650">Clipboard history</text><text x="16" y="89" fill="white" fill-opacity=".76" font-size="12">Ready when you are.</text><text x="16" y="174" fill="white" fill-opacity=".82" font-size="12">◉  3h ago</text></g>
  </g>
  <text x="720" y="486" text-anchor="middle" fill="white" font-family="-apple-system,sans-serif" font-size="20" font-weight="650">FLOATING GLASS TILES</text><text x="720" y="517" text-anchor="middle" fill="white" fill-opacity=".72" font-family="-apple-system,sans-serif" font-size="15">Light ambient tray · tactile independent cards · strongest separation</text>
</svg>
