<svg xmlns="http://www.w3.org/2000/svg" width="1440" height="720" viewBox="0 0 1440 720">
  <defs>
    <linearGradient id="bg" x1="0" y1="0" x2="1" y2="1"><stop stop-color="#9edcf4"/><stop offset=".38" stop-color="#2c73dd"/><stop offset="1" stop-color="#10135f"/></linearGradient>
    <linearGradient id="ribbon" x1="0" y1="0" x2="1" y2="1"><stop stop-color="#fff" stop-opacity=".3"/><stop offset=".32" stop-color="#c8f8ff" stop-opacity=".12"/><stop offset=".72" stop-color="#65a7ff" stop-opacity=".22"/><stop offset="1" stop-color="#e08cff" stop-opacity=".18"/></linearGradient>
    <linearGradient id="rim"><stop stop-color="#fff" stop-opacity=".95"/><stop offset=".35" stop-color="#8ef4ff" stop-opacity=".7"/><stop offset=".7" stop-color="#5fb2ff" stop-opacity=".55"/><stop offset="1" stop-color="#d58fff" stop-opacity=".7"/></linearGradient>
    <linearGradient id="aurora"><stop stop-color="#8bffff" stop-opacity="0"/><stop offset=".5" stop-color="#c6fff5" stop-opacity=".22"/><stop offset="1" stop-color="#b579ff" stop-opacity="0"/></linearGradient>
    <filter id="shadow"><feDropShadow dx="0" dy="20" stdDeviation="18" flood-color="#071151" flood-opacity=".35"/></filter>
    <filter id="glow"><feGaussianBlur stdDeviation="18"/></filter>
  </defs>
  <rect width="1440" height="720" fill="url(#bg)"/><path d="M0 565 C250 465 480 675 735 532 C1010 377 1195 520 1440 326 V720 H0Z" fill="#13277f" opacity=".64"/><path d="M0 602 C315 435 504 678 790 518 C1060 367 1215 500 1440 310" fill="none" stroke="#c6ffff" stroke-opacity=".45" stroke-width="3"/>
  <rect x="170" y="75" width="1100" height="300" rx="52" fill="#09205c" opacity=".25" filter="url(#shadow)"/><rect x="170" y="55" width="1100" height="300" rx="52" fill="url(#ribbon)" stroke="url(#rim)" stroke-width="2.7"/>
  <path d="M236 60 C490 118 684 12 942 74 S1190 62 1255 116" fill="none" stroke="url(#aurora)" stroke-width="42" filter="url(#glow)"/>
  <text x="207" y="105" fill="white" font-family="-apple-system,sans-serif" font-size="23" font-weight="650">Clipio</text><rect x="325" y="75" width="755" height="43" rx="21" fill="#fff" fill-opacity=".1"/><circle cx="353" cy="97" r="7" fill="none" stroke="white" stroke-opacity=".68" stroke-width="2"/><path d="M358 102l7 7" stroke="white" stroke-opacity=".68" stroke-width="2"/><text x="377" y="104" fill="white" fill-opacity=".72" font-family="-apple-system,sans-serif" font-size="17">Type to search…</text><text x="1125" y="107" fill="white" font-family="sans-serif" font-size="25">⚙</text><text x="1180" y="107" fill="white" font-family="sans-serif" font-size="26">◯</text>
  <g transform="translate(205 142)" font-family="-apple-system,sans-serif">
    <g><circle cx="18" cy="17" r="12" fill="#355bb8"/><text x="14" y="22" fill="white" font-size="13">1</text><text x="7" y="55" fill="white" font-size="14" font-weight="650">Design notes</text><text x="7" y="81" fill="white" fill-opacity=".75" font-size="12">Make Clipio lighter,</text><text x="7" y="100" fill="white" fill-opacity=".75" font-size="12">quieter, and clearer.</text><text x="7" y="181" fill="white" fill-opacity=".78" font-size="12">◉  1m ago</text></g>
    <line x1="160" y1="2" x2="160" y2="190" stroke="#d9fbff" stroke-opacity=".2"/>
    <g transform="translate(177)"><rect width="138" height="139" rx="20" fill="#244887" fill-opacity=".76"/><path d="M0 139L48 78l35 34 24-26 31 53" fill="#122e6d"/><circle cx="99" cy="42" r="23" fill="#ffcbb0"/><circle cx="18" cy="17" r="12" fill="#355bb8"/><text x="14" y="22" fill="white" font-size="13">2</text><text x="7" y="181" fill="white" fill-opacity=".78" font-size="12">◉  8m ago</text></g>
    <line x1="332" y1="2" x2="332" y2="190" stroke="#d9fbff" stroke-opacity=".2"/>
    <g transform="translate(349)"><rect width="138" height="139" rx="20" fill="#2a7bd0" fill-opacity=".6"/><text x="17" y="65" fill="white" font-size="19" font-weight="650">Clipio</text><text x="17" y="90" fill="white" fill-opacity=".74" font-size="12">Liquid Glass</text><circle cx="18" cy="17" r="12" fill="#355bb8"/><text x="14" y="22" fill="white" font-size="13">3</text><text x="7" y="181" fill="white" fill-opacity=".78" font-size="12">◉  24m ago</text></g>
    <line x1="504" y1="2" x2="504" y2="190" stroke="#d9fbff" stroke-opacity=".2"/>
    <g transform="translate(521)"><rect width="138" height="139" rx="20" fill="#79e6d1" fill-opacity=".72"/><text x="20" y="78" fill="#06465d" font-size="18" font-weight="700">#79E6D1</text><circle cx="18" cy="17" r="12" fill="#355bb8"/><text x="14" y="22" fill="white" font-size="13">4</text><text x="7" y="181" fill="white" fill-opacity=".78" font-size="12">◉  1h ago</text></g>
    <line x1="676" y1="2" x2="676" y2="190" stroke="#d9fbff" stroke-opacity=".2"/>
    <g transform="translate(693)"><circle cx="18" cy="17" r="12" fill="#355bb8"/><text x="14" y="22" fill="white" font-size="13">5</text><text x="7" y="57" fill="white" font-size="13" font-weight="650">apple.com/design</text><text x="7" y="83" fill="white" fill-opacity=".74" font-size="12">Delightful interfaces</text><text x="7" y="102" fill="white" fill-opacity=".74" font-size="12">made of light.</text><text x="7" y="181" fill="white" fill-opacity=".78" font-size="12">◉  2h ago</text></g>
    <line x1="848" y1="2" x2="848" y2="190" stroke="#d9fbff" stroke-opacity=".2"/>
    <g transform="translate(865)"><circle cx="18" cy="17" r="12" fill="#355bb8"/><text x="14" y="22" fill="white" font-size="13">6</text><text x="7" y="57" fill="white" font-size="13" font-weight="650">Quick thought</text><text x="7" y="83" fill="white" fill-opacity=".74" font-size="12">One surface. Less</text><text x="7" y="102" fill="white" fill-opacity=".74" font-size="12">visual furniture.</text><text x="7" y="181" fill="white" fill-opacity=".78" font-size="12">◉  3h ago</text></g>
  </g>
  <text x="720" y="462" text-anchor="middle" fill="white" font-family="-apple-system,sans-serif" font-size="20" font-weight="650">AURORA RIBBON</text><text x="720" y="493" text-anchor="middle" fill="white" fill-opacity=".72" font-family="-apple-system,sans-serif" font-size="15">One seamless surface · refractive dividers · maximum visual calm</text>
</svg>
